<svg width="120" height="25" viewBox="0 0 47 11" fill="none" xmlns="http://www.w3.org/2000/svg">
<rect width="50" height="11" fill="#DDDDDD"/>
<g id="Home Page">
<g clip-path="url(#clip0_0_1)">
<rect x="-54.4224" y="-18.7801" width="530" height="1831.81" rx="20" fill="#1A1A1A"/>
<g id="Header">
<g id="Brand-logo">
<circle id="Ellipse 16" cx="26.9178" cy="5.14352" r="3.3125" stroke="white" stroke-opacity="0.15" stroke-width="3.68056"/>
<circle id="Ellipse 15" opacity="0.6" cx="26.9178" cy="5.14352" r="2.94444" stroke="white" stroke-width="0.736111"/>
<g id="AAR">
<path d="M1.85696 9.19213H0.785889L3.88377 1.09491H4.93837L8.03624 9.19213H6.96517L4.44402 2.37592H4.37811L1.85696 9.19213ZM2.25244 6.02915H6.5697V6.89897H2.25244V6.02915Z" fill="white"/>
<path d="M9.69641 9.19213H8.62534L11.7232 1.09491H12.7778L15.8757 9.19213H14.8046L12.2835 2.37592H12.2176L9.69641 9.19213ZM10.0919 6.02915H14.4091V6.89897H10.0919V6.02915Z" fill="white"/>
<path d="M17.1898 9.19213V1.09491H20.0405C20.6997 1.09491 21.2407 1.20298 21.6636 1.41911C22.0866 1.63262 22.3996 1.92651 22.6029 2.3008C22.8061 2.67508 22.9077 3.10076 22.9077 3.57785C22.9077 4.05493 22.8061 4.47798 22.6029 4.84699C22.3996 5.21601 22.0879 5.50595 21.6677 5.71681C21.2475 5.92504 20.7106 6.02915 20.057 6.02915H17.7501V5.14352H20.024C20.4744 5.14352 20.837 5.08026 21.1116 4.95374C21.389 4.82722 21.5895 4.64799 21.7131 4.41604C21.8394 4.18145 21.9026 3.90205 21.9026 3.57785C21.9026 3.25364 21.8394 2.97029 21.7131 2.7278C21.5867 2.4853 21.3849 2.29816 21.1075 2.16637C20.8301 2.03194 20.4635 1.96473 20.0076 1.96473H18.2115V9.19213H17.1898ZM21.161 5.55471L23.2373 9.19213H22.0509L20.0076 5.55471H21.161Z" fill="white"/>
</g>
<g id="NN">
<path d="M38.0392 1.09491V9.19213H37.0484L32.4409 2.83455H32.3584V9.19213H31.3345V1.09491H32.3253L36.9493 7.46831H37.0319V1.09491H38.0392Z" fill="white"/>
<path d="M46.7928 1.09491V9.19213H45.802L41.1945 2.83455H41.1119V9.19213H40.088V1.09491H41.0789L45.7029 7.46831H45.7854V1.09491H46.7928Z" fill="white"/>
</g>
</g>
</g>
</g>
</g>
<defs>
<clipPath id="clip0_0_1">
<rect x="-54.4224" y="-18.7801" width="530" height="1831.81" rx="20" fill="white"/>
</clipPath>
</defs>
</svg>
