<svg width="36" height="10" viewBox="0 0 36 10" fill="none" xmlns="http://www.w3.org/2000/svg">
<g id="Frame 5">
<g id="Group 6">
<path id="Vector" fill-rule="evenodd" clip-rule="evenodd" d="M9.1983 0.289307H0.51593C0.411262 0.289307 0.31088 0.328084 0.236868 0.397108C0.162856 0.466131 0.121277 0.559748 0.121277 0.657362L0.121277 8.75458C0.121277 8.8522 0.162856 8.94582 0.236868 9.01484C0.31088 9.08386 0.411262 9.12264 0.51593 9.12264H5.15311V5.81014H3.96915V4.42993H5.15311V3.32576C5.15311 2.18479 5.92781 1.62351 7.01903 1.62351C7.54155 1.62351 7.99106 1.65995 8.12169 1.67577V2.86827L7.36514 2.86864C6.77158 2.86864 6.63306 3.1318 6.63306 3.51752V4.42993H8.11301L7.81702 5.81014H6.63306L6.65673 9.12264H9.1983C9.30297 9.12264 9.40335 9.08386 9.47736 9.01484C9.55138 8.94582 9.59296 8.8522 9.59296 8.75458V0.657362C9.59296 0.559748 9.55138 0.466131 9.47736 0.397108C9.40335 0.328084 9.30297 0.289307 9.1983 0.289307" fill="#C4C4C4"/>
<path id="Vector_2" d="M22.2369 0.289307H13.523C13.3134 0.289307 13.1441 0.447202 13.1441 0.64264V8.76931C13.1441 8.96474 13.3134 9.12264 13.523 9.12264H22.2369C22.4465 9.12264 22.6158 8.96474 22.6158 8.76931V0.64264C22.6158 0.447202 22.4465 0.289307 22.2369 0.289307ZM20.429 3.48808C20.4326 3.53997 20.4326 3.59408 20.4326 3.64708C20.4326 5.26799 19.1089 7.13514 16.6901 7.13514C15.9442 7.13514 15.2527 6.93308 14.6702 6.58527C14.7768 6.59631 14.8786 6.60072 14.9875 6.60072C15.6032 6.60072 16.1691 6.40639 16.6202 6.07735C16.0424 6.06631 15.557 5.71297 15.3913 5.22714C15.5937 5.25474 15.776 5.25474 15.9844 5.20506C15.6869 5.14869 15.4195 4.99801 15.2277 4.77861C15.0358 4.55921 14.9313 4.28463 14.9319 4.00151V3.98606C15.1059 4.0777 15.3108 4.13401 15.525 4.14174C15.3449 4.02978 15.1972 3.87808 15.0949 3.70011C14.9927 3.52214 14.9391 3.32339 14.939 3.12149C14.939 2.89293 15.0029 2.68424 15.1178 2.50316C15.448 2.88226 15.86 3.19232 16.3271 3.41318C16.7943 3.63404 17.306 3.76076 17.829 3.7851C17.6432 2.95145 18.3109 2.27681 19.1136 2.27681C19.4925 2.27681 19.8335 2.42476 20.0738 2.66326C20.371 2.61137 20.6551 2.50758 20.9085 2.36845C20.8102 2.65222 20.6042 2.89183 20.3307 3.0431C20.5959 3.0166 20.8517 2.94814 21.0885 2.85208C20.9097 3.0972 20.6859 3.31472 20.429 3.48808Z" fill="#C4C4C4"/>
<path id="Vector_3" d="M30.9042 3.65425C30.6812 3.65433 30.4632 3.71608 30.2778 3.83169C30.0924 3.9473 29.9479 4.11159 29.8627 4.30377C29.7774 4.49595 29.7551 4.70741 29.7987 4.91139C29.8422 5.11538 29.9497 5.30274 30.1074 5.44979C30.2651 5.59684 30.4661 5.69696 30.6848 5.73751C30.9036 5.77806 31.1303 5.75721 31.3363 5.6776C31.5424 5.59798 31.7185 5.46318 31.8424 5.29024C31.9663 5.11729 32.0324 4.91397 32.0324 4.70597C32.0322 4.42704 31.9132 4.15959 31.7017 3.96239C31.4901 3.76519 31.2033 3.65436 30.9042 3.65425ZM33.5409 2.84585C33.4835 2.71016 33.3968 2.58692 33.2862 2.48378C33.1756 2.38064 33.0434 2.29979 32.8979 2.24624C32.454 2.08279 31.3968 2.11946 30.9042 2.11946C30.4116 2.11946 29.3556 2.08141 28.9103 2.24624C28.7648 2.29979 28.6327 2.38064 28.5221 2.48378C28.4115 2.58692 28.3248 2.71016 28.2674 2.84585C28.0923 3.25991 28.1314 4.24676 28.1314 4.70578C28.1314 5.16479 28.0923 6.15046 28.2682 6.5659C28.3256 6.70159 28.4123 6.82483 28.5229 6.92797C28.6335 7.03111 28.7657 7.11196 28.9112 7.1655C29.3552 7.32896 30.4123 7.29229 30.9051 7.29229C31.3979 7.29229 32.4535 7.33034 32.8988 7.1655C33.0443 7.11196 33.1764 7.03111 33.287 6.92797C33.3976 6.82483 33.4843 6.70159 33.5417 6.5659C33.7183 6.15184 33.6777 5.16499 33.6777 4.70597C33.6777 4.24696 33.7183 3.26149 33.5417 2.84604L33.5409 2.84585ZM30.9042 6.32279C30.5614 6.32279 30.2262 6.22796 29.9411 6.05031C29.656 5.87265 29.4338 5.62014 29.3025 5.3247C29.1713 5.02927 29.137 4.70418 29.2039 4.39055C29.2708 4.07692 29.4359 3.78883 29.6784 3.56271C29.9208 3.3366 30.2297 3.18261 30.566 3.12022C30.9023 3.05784 31.2509 3.08986 31.5677 3.21223C31.8845 3.3346 32.1552 3.54183 32.3457 3.80772C32.5362 4.0736 32.6379 4.3862 32.6379 4.70597C32.6382 4.91837 32.5935 5.12873 32.5065 5.32501C32.4195 5.52129 32.2918 5.69963 32.1307 5.84981C31.9697 6 31.7785 6.11908 31.568 6.20024C31.3575 6.2814 31.132 6.32305 30.9042 6.32279ZM32.7094 3.39872C32.6293 3.39876 32.5511 3.37666 32.4845 3.33521C32.4179 3.29377 32.366 3.23484 32.3353 3.16589C32.3047 3.09693 32.2966 3.02105 32.3122 2.94783C32.3278 2.87461 32.3663 2.80734 32.4229 2.75455C32.4795 2.70175 32.5516 2.66579 32.6301 2.65121C32.7086 2.63663 32.79 2.64409 32.8639 2.67265C32.9379 2.70121 33.0011 2.74958 33.0456 2.81164C33.0901 2.87371 33.1138 2.94668 33.1138 3.02133C33.114 3.0709 33.1037 3.12003 33.0836 3.16589C33.0634 3.21175 33.0337 3.25344 32.9962 3.28858C32.9587 3.32371 32.9141 3.3516 32.8651 3.37063C32.816 3.38967 32.7634 3.39948 32.7102 3.39951L32.7094 3.39872ZM34.6253 0.289307H27.1832C26.9141 0.289307 26.6559 0.389019 26.4656 0.566509C26.2753 0.743999 26.1684 0.984727 26.1684 1.23574V8.17621C26.1684 8.42722 26.2753 8.66795 26.4656 8.84544C26.6559 9.02293 26.9141 9.12264 27.1832 9.12264H34.6253C34.8944 9.12264 35.1525 9.02293 35.3428 8.84544C35.5332 8.66795 35.6401 8.42722 35.6401 8.17621V1.23574C35.6401 0.984727 35.5332 0.743999 35.3428 0.566509C35.1525 0.389019 34.8944 0.289307 34.6253 0.289307ZM34.2633 6.00731C34.236 6.51267 34.1123 6.96044 33.7168 7.32837C33.3212 7.69629 32.8415 7.81401 32.3003 7.83806C31.7419 7.86744 30.0679 7.86744 29.5095 7.83806C28.9676 7.81262 28.4892 7.69708 28.093 7.32837C27.6968 6.95966 27.5722 6.51168 27.5464 6.00731C27.5149 5.48638 27.5149 3.92497 27.5464 3.40463C27.5737 2.89928 27.6959 2.4515 28.093 2.08358C28.49 1.71565 28.9697 1.59932 29.5095 1.57527C30.0679 1.54589 31.7419 1.54589 32.3003 1.57527C32.8421 1.6007 33.3221 1.71624 33.7168 2.08496C34.1115 2.45367 34.2375 2.90165 34.2633 3.407C34.2948 3.92596 34.2948 5.48599 34.2633 6.00731Z" fill="#C4C4C4"/>
</g>
</g>
</svg>
