<svg width="160" height="45" viewBox="0 0 90 20" fill="none" xmlns="http://www.w3.org/2000/svg">
<g id="Group 5139764">
<circle id="Ellipse 16" cx="51.1682" cy="9.94924" r="6.3865" stroke="white" stroke-opacity="0.15" stroke-width="7.09611"/>
<circle id="Ellipse 15" opacity="0.6" cx="51.1682" cy="9.94924" r="5.67689" stroke="white" stroke-width="1.41922"/>
<g id="AAR">
<path d="M2.85092 17.755H0.785889L6.7586 2.14355H8.79186L14.7646 17.755H12.6995L7.83877 4.61333H7.71169L2.85092 17.755ZM3.6134 11.6568H11.9371V13.3338H3.6134V11.6568Z" fill="white"/>
<path d="M17.9654 17.755H15.9003L21.8731 2.14355H23.9063L29.879 17.755H27.814L22.9532 4.61333H22.8261L17.9654 17.755ZM18.7279 11.6568H27.0515V13.3338H18.7279V11.6568Z" fill="white"/>
<path d="M32.4127 17.755V2.14355H37.9088C39.1796 2.14355 40.2227 2.35191 41.0382 2.76862C41.8536 3.18025 42.4572 3.74688 42.849 4.4685C43.2409 5.19012 43.4368 6.01084 43.4368 6.93066C43.4368 7.85047 43.2409 8.66611 42.849 9.37757C42.4572 10.089 41.8562 10.648 41.0461 11.0546C40.236 11.456 39.2008 11.6568 37.9406 11.6568H33.4928V9.94928H37.8771C38.7454 9.94928 39.4444 9.82731 39.9739 9.58338C40.5087 9.33946 40.8952 8.99389 41.1335 8.54669C41.377 8.0944 41.4988 7.55573 41.4988 6.93066C41.4988 6.30559 41.377 5.75929 41.1335 5.29176C40.8899 4.82423 40.5007 4.46342 39.9659 4.20933C39.4311 3.95015 38.7243 3.82057 37.8453 3.82057H34.3824V17.755H32.4127ZM40.0692 10.742L44.0722 17.755H41.7847L37.8453 10.742H40.0692Z" fill="white"/>
</g>
<g id="NN">
<path d="M72.6105 2.14355V17.755H70.7001L61.8169 5.49758H61.6577V17.755H59.6837V2.14355H61.594L70.5091 14.4315H70.6682V2.14355H72.6105Z" fill="white"/>
<path d="M89.4873 2.14355V17.755H87.577L78.6938 5.49758H78.5346V17.755H76.5605V2.14355H78.4709L87.3859 14.4315H87.5451V2.14355H89.4873Z" fill="white"/>
</g>
</g>
</svg>
